<?xml version="1.0" encoding="UTF-8"?>
<svg id="Layer_1" data-name="Layer 1" xmlns="http://www.w3.org/2000/svg" viewBox="0 0 84.97 170.62">
  <defs>
    <style>
      .cls-1 {
        fill: #fff;
      }
    </style>
  </defs>
  <path class="cls-1" d="m1.26,47.46L9.49.7h8.44l-8.79,49.92H3.91c-1.67,0-2.94-1.51-2.65-3.16Zm4.89-15.86l1.37-7.77h25.24l-1.37,7.77H6.15Zm1.97-23.17l1.37-7.73h33.68l-1.37,7.73H8.12Z"/>
  <path class="cls-1" d="m57.94,51.33c-4.5,0-7.95-1.54-10.35-4.62-2.4-3.08-3.6-7.49-3.6-13.24,0-7.19.88-13.28,2.65-18.26,1.77-4.98,4.36-8.76,7.79-11.34,3.42-2.58,7.59-3.87,12.52-3.87,4.48,0,7.9,1.51,10.28,4.52,2.38,3.01,3.57,7.33,3.57,12.96,0,7.27-.88,13.42-2.65,18.46-1.77,5.04-4.35,8.87-7.75,11.48-3.4,2.61-7.55,3.92-12.45,3.92Zm-8.65-8.86l-2.18-4.39,27.35-26.82,2.88,3.48-28.05,27.74Zm10.02,1.05c2.72,0,5.03-.99,6.93-2.97,1.9-1.98,3.34-4.88,4.32-8.7.98-3.82,1.48-8.48,1.48-13.99,0-3.23-.56-5.72-1.67-7.45-1.11-1.73-2.71-2.6-4.8-2.6-2.74,0-5.07.98-6.98,2.95-1.91,1.97-3.36,4.85-4.36,8.63-1,3.79-1.49,8.42-1.49,13.9,0,3.28.57,5.81,1.71,7.58,1.14,1.77,2.76,2.65,4.87,2.65Z"/>
  <path class="cls-1" d="m.78,106.19l8.01-45.48h8.44l-8.79,49.92h-3.93c-2.35,0-4.13-2.12-3.72-4.44Zm.05-.27l.54-3.02h33.68l-1.37,7.73H4.78c-2.5,0-4.38-2.25-3.95-4.71Z"/>
  <path class="cls-1" d="m41.84,110.62l8.79-49.92h8.44l-8.79,49.92h-8.44Zm5.94-11.67l.46-8.12c5.72-.84,10.49-2.68,14.33-5.5,3.83-2.82,6.86-6.36,9.07-10.6,2.21-4.24,3.77-8.92,4.66-14.03h8.58c-1.12,6.66-3.28,12.72-6.47,18.19-3.19,5.47-7.34,9.97-12.46,13.5-5.12,3.53-11.17,5.71-18.16,6.56Zm20.78,11.67l-7.07-21.87,7.8-3.59,8.75,25.45h-9.49Z"/>
  <path class="cls-1" d="m0,170.62l8.79-49.92h8.44l-8.79,49.92H0Zm.85-4.82l.52-2.92h33.68l-1.37,7.73H4.89c-2.55,0-4.48-2.3-4.04-4.82Zm2.87-16.31l1.34-7.73h27.39l-1.37,7.73H3.73Zm3.69-21.06l1.37-7.73h33.68l-1.37,7.73H7.42Z"/>
  <path class="cls-1" d="m47.18,128.44l1.34-7.73h36.46l-1.34,7.73h-36.46Zm6.5,42.19l8.82-49.92h8.44l-8.79,49.92h-8.47Z"/>
</svg>